<svg xmlns="http://www.w3.org/2000/svg" xmlns:xlink="http://www.w3.org/1999/xlink" contentStyleType="text/css" data-diagram-type="CLASS" height="611px" preserveAspectRatio="none" style="width:690px;height:611px;background:#FFFFFF;" version="1.1" viewBox="0 0 690 611" width="690px" zoomAndPan="magnify"><defs/><g><!--class client--><g class="entity" data-entity="client" data-source-line="10" data-uid="ent0002" id="entity_client"><rect fill="#F1F1F1" height="241.5625" rx="2.5" ry="2.5" style="stroke:#181818;stroke-width:0.5;" width="160.6855" x="330.6" y="7"/><ellipse cx="389.5727" cy="22" fill="#C2C2C2" rx="10" ry="10" style="stroke:#181818;stroke-width:1;"/><path d="M392.0102,26.5 L386.557,26.5 L386.557,17.75 L392.0102,17.75 L392.0102,19.2813 L388.2914,19.2813 L388.2914,21.1563 L391.6508,21.1563 L391.6508,22.6875 L388.2914,22.6875 L388.2914,24.9688 L392.0102,24.9688 L392.0102,26.5 Z " fill="#000000"/><text fill="#000000" font-family="Arial" font-size="12" lengthAdjust="spacing" textLength="34.7402" x="408.5727" y="26.1543">Client</text><line style="stroke:#181818;stroke-width:0.5;" x1="331.6" x2="490.2855" y1="37" y2="37"/><ellipse cx="341.6" cy="49.4844" fill="#000000" rx="3" ry="3" style="stroke:#000000;stroke-width:1;"/><text fill="#000000" font-family="Arial" font-size="12" lengthAdjust="spacing" textLength="52.9688" x="349.6" y="52.1387">id : UUID</text><line style="stroke:#181818;stroke-width:1;" x1="331.6" x2="490.2855" y1="58.9688" y2="58.9688"/><ellipse cx="341.6" cy="71.4531" fill="#000000" rx="3" ry="3" style="stroke:#000000;stroke-width:1;"/><text fill="#000000" font-family="Arial" font-size="12" lengthAdjust="spacing" textLength="59.3145" x="349.6" y="74.1074">fn : String</text><text fill="#000000" font-family="Arial" font-size="12" lengthAdjust="spacing" textLength="118.3828" x="349.6" y="88.0762">n : StructuredName</text><text fill="#000000" font-family="Arial" font-size="12" lengthAdjust="spacing" textLength="76.7402" x="349.6" y="102.0449">org : String[]</text><text fill="#000000" font-family="Arial" font-size="12" lengthAdjust="spacing" textLength="70.9453" x="349.6" y="116.0137">title : String</text><text fill="#000000" font-family="Arial" font-size="12" lengthAdjust="spacing" textLength="66.9434" x="349.6" y="129.9824">photo : URI</text><text fill="#000000" font-family="Arial" font-size="12" lengthAdjust="spacing" textLength="121.834" x="349.6" y="143.9512">tel : PhoneNumber[]</text><text fill="#000000" font-family="Arial" font-size="12" lengthAdjust="spacing" textLength="135.6855" x="349.6" y="157.9199">email : EmailAddress[]</text><text fill="#000000" font-family="Arial" font-size="12" lengthAdjust="spacing" textLength="89.2031" x="349.6" y="171.8887">adr : Address[]</text><text fill="#000000" font-family="Arial" font-size="12" lengthAdjust="spacing" textLength="70.043" x="349.6" y="185.8574">bday : Date</text><text fill="#000000" font-family="Arial" font-size="12" lengthAdjust="spacing" textLength="85.4473" x="349.6" y="199.8262">url : Website[]</text><text fill="#000000" font-family="Arial" font-size="12" lengthAdjust="spacing" textLength="74.5195" x="349.6" y="213.7949">note : String</text><text fill="#000000" font-family="Arial" font-size="12" lengthAdjust="spacing" textLength="116.0625" x="349.6" y="227.7637">created : DateTime</text><text fill="#000000" font-family="Arial" font-size="12" lengthAdjust="spacing" textLength="119.9883" x="349.6" y="241.7324">updated : DateTime</text></g><!--class task--><g class="entity" data-entity="task" data-source-line="28" data-uid="ent0003" id="entity_task"><rect fill="#F1F1F1" height="255.5313" rx="2.5" ry="2.5" style="stroke:#181818;stroke-width:0.5;" width="183.8945" x="94" y="315.54"/><ellipse cx="168.0049" cy="330.54" fill="#C2C2C2" rx="10" ry="10" style="stroke:#181818;stroke-width:1;"/><path d="M170.4424,335.04 L164.9893,335.04 L164.9893,326.29 L170.4424,326.29 L170.4424,327.8212 L166.7236,327.8212 L166.7236,329.6962 L170.083,329.6962 L170.083,331.2275 L166.7236,331.2275 L166.7236,333.5087 L170.4424,333.5087 L170.4424,335.04 Z " fill="#000000"/><text fill="#000000" font-family="Arial" font-size="12" lengthAdjust="spacing" textLength="27.8848" x="187.0049" y="334.6943">Task</text><line style="stroke:#181818;stroke-width:0.5;" x1="95" x2="276.8945" y1="345.54" y2="345.54"/><ellipse cx="105" cy="358.0244" fill="#000000" rx="3" ry="3" style="stroke:#000000;stroke-width:1;"/><text fill="#000000" font-family="Arial" font-size="12" lengthAdjust="spacing" textLength="52.9688" x="113" y="360.6787">id : UUID</text><line style="stroke:#181818;stroke-width:1;" x1="95" x2="276.8945" y1="367.5087" y2="367.5087"/><ellipse cx="105" cy="379.9931" fill="#000000" rx="3" ry="3" style="stroke:#000000;stroke-width:1;"/><text fill="#000000" font-family="Arial" font-size="12" lengthAdjust="spacing" textLength="104.1094" x="113" y="382.6474">summary : String</text><text fill="#000000" font-family="Arial" font-size="12" lengthAdjust="spacing" textLength="114.2051" x="113" y="396.6162">description : String</text><text fill="#000000" font-family="Arial" font-size="12" lengthAdjust="spacing" textLength="110.3613" x="113" y="410.5849">dtstart : DateTime</text><text fill="#000000" font-family="Arial" font-size="12" lengthAdjust="spacing" textLength="92.6953" x="113" y="424.5537">due : DateTime</text><text fill="#000000" font-family="Arial" font-size="12" lengthAdjust="spacing" textLength="133.7578" x="113" y="438.5224">completed : DateTime</text><ellipse cx="105" cy="449.8369" fill="#000000" rx="3" ry="3" style="stroke:#000000;stroke-width:1;"/><text fill="#000000" font-family="Arial" font-size="12" lengthAdjust="spacing" textLength="83.0273" x="113" y="452.4912">status : Enum</text><text fill="#000000" font-family="Arial" font-size="12" lengthAdjust="spacing" textLength="98.1387" x="113" y="466.4599">priority : Integer</text><text fill="#000000" font-family="Arial" font-size="12" lengthAdjust="spacing" textLength="119.748" x="113" y="480.4287">categories : String[]</text><text fill="#000000" font-family="Arial" font-size="12" lengthAdjust="spacing" textLength="109.2246" x="113" y="494.3974">organizer : Person</text><text fill="#000000" font-family="Arial" font-size="12" lengthAdjust="spacing" textLength="122.1738" x="113" y="508.3662">attendees : Person[]</text><text fill="#000000" font-family="Arial" font-size="12" lengthAdjust="spacing" textLength="158.8945" x="113" y="522.3349">percentComplete : Integer</text><text fill="#000000" font-family="Arial" font-size="12" lengthAdjust="spacing" textLength="75.6738" x="113" y="536.3037">rrule : String</text><text fill="#000000" font-family="Arial" font-size="12" lengthAdjust="spacing" textLength="116.0625" x="113" y="550.2724">created : DateTime</text><text fill="#000000" font-family="Arial" font-size="12" lengthAdjust="spacing" textLength="119.9883" x="113" y="564.2412">updated : DateTime</text></g><!--class message--><g class="entity" data-entity="message" data-source-line="47" data-uid="ent0004" id="entity_message"><rect fill="#F1F1F1" height="269.5" rx="2.5" ry="2.5" style="stroke:#181818;stroke-width:0.5;" width="159.7363" x="331.08" y="308.56"/><ellipse cx="380.6513" cy="323.56" fill="#C2C2C2" rx="10" ry="10" style="stroke:#181818;stroke-width:1;"/><path d="M383.0888,328.06 L377.6357,328.06 L377.6357,319.31 L383.0888,319.31 L383.0888,320.8412 L379.37,320.8412 L379.37,322.7162 L382.7294,322.7162 L382.7294,324.2475 L379.37,324.2475 L379.37,326.5287 L383.0888,326.5287 L383.0888,328.06 Z " fill="#000000"/><text fill="#000000" font-family="Arial" font-size="12" lengthAdjust="spacing" textLength="52.5938" x="399.6513" y="327.7143">Message</text><line style="stroke:#181818;stroke-width:0.5;" x1="332.08" x2="489.8163" y1="338.56" y2="338.56"/><ellipse cx="342.08" cy="351.0444" fill="#000000" rx="3" ry="3" style="stroke:#000000;stroke-width:1;"/><text fill="#000000" font-family="Arial" font-size="12" lengthAdjust="spacing" textLength="52.9688" x="350.08" y="353.6987">id : UUID</text><line style="stroke:#181818;stroke-width:1;" x1="332.08" x2="489.8163" y1="360.5287" y2="360.5287"/><ellipse cx="342.08" cy="373.0131" fill="#000000" rx="3" ry="3" style="stroke:#000000;stroke-width:1;"/><text fill="#000000" font-family="Arial" font-size="12" lengthAdjust="spacing" textLength="90.9785" x="350.08" y="375.6674">subject : String</text><ellipse cx="342.08" cy="386.9819" fill="#000000" rx="3" ry="3" style="stroke:#000000;stroke-width:1;"/><text fill="#000000" font-family="Arial" font-size="12" lengthAdjust="spacing" textLength="77.1621" x="350.08" y="389.6362">body : String</text><ellipse cx="342.08" cy="400.9506" fill="#000000" rx="3" ry="3" style="stroke:#000000;stroke-width:1;"/><text fill="#000000" font-family="Arial" font-size="12" lengthAdjust="spacing" textLength="80.6133" x="350.08" y="403.6049">from : Person</text><ellipse cx="342.08" cy="414.9194" fill="#000000" rx="3" ry="3" style="stroke:#000000;stroke-width:1;"/><text fill="#000000" font-family="Arial" font-size="12" lengthAdjust="spacing" textLength="73.834" x="350.08" y="417.5737">to : Person[]</text><text fill="#000000" font-family="Arial" font-size="12" lengthAdjust="spacing" textLength="74.9824" x="350.08" y="431.5424">cc : Person[]</text><text fill="#000000" font-family="Arial" font-size="12" lengthAdjust="spacing" textLength="108.9492" x="350.08" y="445.5112">sentAt : DateTime</text><text fill="#000000" font-family="Arial" font-size="12" lengthAdjust="spacing" textLength="134.7363" x="350.08" y="459.4799">receivedAt : DateTime</text><text fill="#000000" font-family="Arial" font-size="12" lengthAdjust="spacing" textLength="110.291" x="350.08" y="473.4487">readAt : DateTime</text><text fill="#000000" font-family="Arial" font-size="12" lengthAdjust="spacing" textLength="117.9434" x="350.08" y="487.4174">attachments : File[]</text><text fill="#000000" font-family="Arial" font-size="12" lengthAdjust="spacing" textLength="87.082" x="350.08" y="501.3862">thread : String</text><ellipse cx="342.08" cy="512.7006" fill="#000000" rx="3" ry="3" style="stroke:#000000;stroke-width:1;"/><text fill="#000000" font-family="Arial" font-size="12" lengthAdjust="spacing" textLength="93.6387" x="350.08" y="515.3549">channel : Enum</text><ellipse cx="342.08" cy="526.6694" fill="#000000" rx="3" ry="3" style="stroke:#000000;stroke-width:1;"/><text fill="#000000" font-family="Arial" font-size="12" lengthAdjust="spacing" textLength="99.0059" x="350.08" y="529.3237">direction : Enum</text><text fill="#000000" font-family="Arial" font-size="12" lengthAdjust="spacing" textLength="83.0273" x="350.08" y="543.2924">status : Enum</text><text fill="#000000" font-family="Arial" font-size="12" lengthAdjust="spacing" textLength="116.0625" x="350.08" y="557.2612">created : DateTime</text><text fill="#000000" font-family="Arial" font-size="12" lengthAdjust="spacing" textLength="119.9883" x="350.08" y="571.2299">updated : DateTime</text></g><!--class note--><g class="entity" data-entity="note" data-source-line="67" data-uid="ent0005" id="entity_note"><rect fill="#F1F1F1" height="171.7188" rx="2.5" ry="2.5" style="stroke:#181818;stroke-width:0.5;" width="157.9023" x="526" y="357.45"/><ellipse cx="586.748" cy="372.45" fill="#C2C2C2" rx="10" ry="10" style="stroke:#181818;stroke-width:1;"/><path d="M589.1855,376.95 L583.7324,376.95 L583.7324,368.2 L589.1855,368.2 L589.1855,369.7312 L585.4668,369.7312 L585.4668,371.6062 L588.8262,371.6062 L588.8262,373.1375 L585.4668,373.1375 L585.4668,375.4187 L589.1855,375.4187 L589.1855,376.95 Z " fill="#000000"/><text fill="#000000" font-family="Arial" font-size="12" lengthAdjust="spacing" textLength="28.4063" x="605.748" y="376.6043">Note</text><line style="stroke:#181818;stroke-width:0.5;" x1="527" x2="682.9023" y1="387.45" y2="387.45"/><ellipse cx="537" cy="399.9344" fill="#000000" rx="3" ry="3" style="stroke:#000000;stroke-width:1;"/><text fill="#000000" font-family="Arial" font-size="12" lengthAdjust="spacing" textLength="52.9688" x="545" y="402.5887">id : UUID</text><line style="stroke:#181818;stroke-width:1;" x1="527" x2="682.9023" y1="409.4187" y2="409.4187"/><text fill="#000000" font-family="Arial" font-size="12" lengthAdjust="spacing" textLength="70.9453" x="545" y="424.5574">title : String</text><ellipse cx="537" cy="435.8719" fill="#000000" rx="3" ry="3" style="stroke:#000000;stroke-width:1;"/><text fill="#000000" font-family="Arial" font-size="12" lengthAdjust="spacing" textLength="93.4277" x="545" y="438.5262">content : String</text><ellipse cx="537" cy="449.8406" fill="#000000" rx="3" ry="3" style="stroke:#000000;stroke-width:1;"/><text fill="#000000" font-family="Arial" font-size="12" lengthAdjust="spacing" textLength="113.7305" x="545" y="452.4949">createdBy : Person</text><ellipse cx="537" cy="463.8094" fill="#000000" rx="3" ry="3" style="stroke:#000000;stroke-width:1;"/><text fill="#000000" font-family="Arial" font-size="12" lengthAdjust="spacing" textLength="128.9766" x="545" y="466.4637">createdAt : DateTime</text><text fill="#000000" font-family="Arial" font-size="12" lengthAdjust="spacing" textLength="132.9023" x="545" y="480.4324">updatedAt : DateTime</text><text fill="#000000" font-family="Arial" font-size="12" lengthAdjust="spacing" textLength="82.7754" x="545" y="494.4012">tags : String[]</text><text fill="#000000" font-family="Arial" font-size="12" lengthAdjust="spacing" textLength="95.6016" x="545" y="508.3699">visibility : Enum</text><text fill="#000000" font-family="Arial" font-size="12" lengthAdjust="spacing" textLength="101.4258" x="545" y="522.3387">pinned : Boolean</text></g><!--link client to task--><g class="link" data-entity-1="client" data-entity-2="task" data-source-line="81" data-uid="lnk6" id="link_client_task"><path codeLine="81" d="M322.21,128.06 C268.82,128.06 216.6,128.06 216.6,128.06 C216.6,128.06 216.6,209.81 216.6,297.09 " fill="none" id="client-task" style="stroke:#181818;stroke-width:1;"/><line style="stroke:#181818;stroke-width:1;" x1="326.21" x2="326.21" y1="124.06" y2="132.06"/><line style="stroke:#181818;stroke-width:1;" x1="323.21" x2="323.21" y1="124.06" y2="132.06"/><line style="stroke:#181818;stroke-width:1;" x1="322.21" x2="330.21" y1="128.06" y2="128.06"/><line style="stroke:#181818;stroke-width:1;" x1="216.6" x2="222.6" y1="307.09" y2="315.09"/><line style="stroke:#181818;stroke-width:1;" x1="216.6" x2="210.6" y1="307.09" y2="315.09"/><line style="stroke:#181818;stroke-width:1;" x1="216.6" x2="216.6" y1="307.09" y2="315.09"/><ellipse cx="216.6" cy="301.09" fill="none" rx="4" ry="4" style="stroke:#181818;stroke-width:1;"/><text fill="#000000" font-family="Arial" font-size="12" lengthAdjust="spacing" textLength="56.5371" x="159.6" y="161.8987">has tasks</text></g><!--link client to message--><g class="link" data-entity-1="client" data-entity-2="message" data-source-line="82" data-uid="lnk7" id="link_client_message"><path codeLine="82" d="M410.95,256.87 C410.95,276.25 410.95,270.41 410.95,290.09 " fill="none" id="client-message" style="stroke:#181818;stroke-width:1;"/><line style="stroke:#181818;stroke-width:1;" x1="406.95" x2="414.95" y1="252.87" y2="252.87"/><line style="stroke:#181818;stroke-width:1;" x1="406.95" x2="414.95" y1="255.87" y2="255.87"/><line style="stroke:#181818;stroke-width:1;" x1="410.95" x2="410.95" y1="256.87" y2="248.87"/><line style="stroke:#181818;stroke-width:1;" x1="410.95" x2="416.95" y1="300.09" y2="308.09"/><line style="stroke:#181818;stroke-width:1;" x1="410.95" x2="404.95" y1="300.09" y2="308.09"/><line style="stroke:#181818;stroke-width:1;" x1="410.95" x2="410.95" y1="300.09" y2="308.09"/><ellipse cx="410.95" cy="294.09" fill="none" rx="4" ry="4" style="stroke:#181818;stroke-width:1;"/><text fill="#000000" font-family="Arial" font-size="12" lengthAdjust="spacing" textLength="85.207" x="324.95" y="275.6187">has messages</text></g><!--link client to note--><g class="link" data-entity-1="client" data-entity-2="note" data-source-line="83" data-uid="lnk8" id="link_client_note"><path codeLine="83" d="M499.54,128.06 C552.84,128.06 604.95,128.06 604.95,128.06 C604.95,128.06 604.95,245.83 604.95,339.17 " fill="none" id="client-note" style="stroke:#181818;stroke-width:1;"/><line style="stroke:#181818;stroke-width:1;" x1="495.54" x2="495.54" y1="132.06" y2="124.06"/><line style="stroke:#181818;stroke-width:1;" x1="498.54" x2="498.54" y1="132.06" y2="124.06"/><line style="stroke:#181818;stroke-width:1;" x1="499.54" x2="491.54" y1="128.06" y2="128.06"/><line style="stroke:#181818;stroke-width:1;" x1="604.95" x2="610.95" y1="349.17" y2="357.17"/><line style="stroke:#181818;stroke-width:1;" x1="604.95" x2="598.95" y1="349.17" y2="357.17"/><line style="stroke:#181818;stroke-width:1;" x1="604.95" x2="604.95" y1="349.17" y2="357.17"/><ellipse cx="604.95" cy="343.17" fill="none" rx="4" ry="4" style="stroke:#181818;stroke-width:1;"/><text fill="#000000" font-family="Arial" font-size="12" lengthAdjust="spacing" textLength="58.3125" x="545.95" y="183.0487">has notes</text></g><!--link task to task--><g class="link" data-entity-1="task" data-entity-2="task" data-source-line="84" data-uid="lnk9" id="link_task_task"><path codeLine="84" d="M155.3,297.11 C155.3,276.11 155.3,279.06 155.3,279.06 C155.3,279.06 76,279.06 76,279.06 C76,279.06 76,596.06 76,596.06 C76,596.06 185.95,596.06 185.95,596.06 C185.95,596.06 185.95,604.21 185.95,589.52 " fill="none" id="task-task" style="stroke:#181818;stroke-width:1;"/><line style="stroke:#181818;stroke-width:1;" x1="155.3" x2="161.3" y1="307.11" y2="315.11"/><line style="stroke:#181818;stroke-width:1;" x1="155.3" x2="149.3" y1="307.11" y2="315.11"/><line style="stroke:#181818;stroke-width:1;" x1="155.3" x2="155.3" y1="307.11" y2="315.11"/><ellipse cx="155.3" cy="301.11" fill="none" rx="4" ry="4" style="stroke:#181818;stroke-width:1;"/><line style="stroke:#181818;stroke-width:1;" x1="185.95" x2="179.95" y1="579.52" y2="571.52"/><line style="stroke:#181818;stroke-width:1;" x1="185.95" x2="191.95" y1="579.52" y2="571.52"/><line style="stroke:#181818;stroke-width:1;" x1="185.95" x2="185.95" y1="579.52" y2="571.52"/><ellipse cx="185.95" cy="585.52" fill="none" rx="4" ry="4" style="stroke:#181818;stroke-width:1;"/><text fill="#000000" font-family="Arial" font-size="12" lengthAdjust="spacing" textLength="58.5703" x="12" y="439.2687">related to</text></g><!--SRC=[fLHDRzim3BtxLmYv10YGmtRCBVq2UbXGD2rs67PW9CRM8ak6H7VmslxtaR9RsCwwmtOo_KYAJu-abcfFdRE-BDB9-WOYrAeEFkWgXXeLnHP77Wv4wXfK8L8LHeu6z0bAbBDGHTG4ldJZp5I12J-vZZg2IsEFmIEqZcw2fnrmoMsquFxitzjVg3vzBegbklPaoM8gK8nEBIwTPNEX82cTJVLSABLIrgYDUdoylUA_zJf3Hy_GdgBSMgdXfzNKHZH2WS4Go_UORzyPu29yir5QKmKASlJzhRZHiNrN1O-xjZvWp4bOWnNyMhvROoAcb1rW8iDZv62WO-WAICgtKTA-uY5PmkptWIRbTKGEDKFAWysisyRCmTVYNQ47IAUi3x7niJgfhMk8tRYOmQIZRSY6YNA64a6aAGVJuXJGeMuSdd7bGWJK9f77jxKe6cs8mdIZRZrXYL6oEQDa6DEq7zmWy3mEekCTnXIyo4g4tc2ExS4Sss3KBCBbG6HoVeoj-rzXlt0JUVYpjdLl_qtUmm_UZt79bJe4qqsH8w_V-6ehbQTjT2kjf_-9wMndpU1DHFk4vXo7Cup50rtLV8h8TsDTFtXKIV2KdAx0-ppnG-jMobZP-dv01d3UttzGTiTJdsNDu_-1fcUhoGJviP0dO0hszI-wgQu3F9TZ83Q72ShP93xPP0_MzOFxDigMzH6U5o4u12ztMgfxT20IfSesgHXUgPUNzJeyzpkvKOjgsC-qc0My3TOGC_oUXGtlH8uHcmFoqQzXKYOA5MP8OV4R]--></g></svg>