<svg xmlns="http://www.w3.org/2000/svg" xmlns:xlink="http://www.w3.org/1999/xlink" contentStyleType="text/css" data-diagram-type="DESCRIPTION" height="733px" preserveAspectRatio="none" style="width:762px;height:733px;" version="1.1" viewBox="0 0 762 733" width="762px" zoomAndPan="magnify"><defs/><g><rect fill="#FFFFCC" height="26.6406" rx="2.5" ry="2.5" style="stroke:#FFDD88;stroke-width:3;" width="751.9028" x="5" y="5"/><text fill="#000000" font-family="monospace" font-size="10" lengthAdjust="spacing" textLength="355.21" x="10" y="20">Please&#160;use&#160;'!option&#160;handwritten&#160;true'&#160;to&#160;enable&#160;handwritten</text><!--cluster Open Register--><g class="cluster" data-entity="Open Register" data-source-line="5" data-uid="ent0002" id="cluster_Open Register"><path d="M8.5,181.4406 L122.2793,181.4406 A3.75,3.75 0 0 1 124.7793,183.9406 L131.7793,203.7375 L283.5,203.7375 A2.5,2.5 0 0 1 286,206.2375 L286,706.7306 A2.5,2.5 0 0 1 283.5,709.2306 L8.5,709.2306 A2.5,2.5 0 0 1 6,706.7306 L6,183.9406 A2.5,2.5 0 0 1 8.5,181.4406" fill="none" style="stroke:#000000;stroke-width:1.5;"/><line style="stroke:#000000;stroke-width:1.5;" x1="6" x2="131.7793" y1="203.7375" y2="203.7375"/><text fill="#000000" font-family="sans-serif" font-size="14" font-weight="bold" lengthAdjust="spacing" textLength="112.7793" x="10" y="196.4357">Open Register</text></g><!--cluster Storage--><g class="cluster" data-entity="Storage" data-source-line="14" data-uid="ent0008" id="cluster_Storage"><path d="M318,476.1406 C318,466.1406 493,466.1406 493,466.1406 C493,466.1406 668,466.1406 668,476.1406 L668,706.7306 C668,716.7306 493,716.7306 493,716.7306 C493,716.7306 318,716.7306 318,706.7306 L318,476.1406" fill="none" style="stroke:#181818;stroke-width:1;"/><path d="M318,476.1406 C318,486.1406 493,486.1406 493,486.1406 C493,486.1406 668,486.1406 668,476.1406" fill="none" style="stroke:#181818;stroke-width:1;"/><text fill="#000000" font-family="sans-serif" font-size="14" font-weight="bold" lengthAdjust="spacing" textLength="142.6797" x="421.6602" y="501.1357">Storage Backends</text></g><!--entity API--><g class="entity" data-entity="API" data-source-line="6" data-uid="ent0003" id="entity_API"><rect fill="#F1F1F1" height="46.2969" rx="2.5" ry="2.5" style="stroke:#181818;stroke-width:0.5;" width="105.6318" x="22.18" y="216.4406"/><rect fill="#F1F1F1" height="10" style="stroke:#181818;stroke-width:0.5;" width="15" x="107.8118" y="221.4406"/><rect fill="#F1F1F1" height="2" style="stroke:#181818;stroke-width:0.5;" width="4" x="105.8118" y="223.4406"/><rect fill="#F1F1F1" height="2" style="stroke:#181818;stroke-width:0.5;" width="4" x="105.8118" y="227.4406"/><text fill="#000000" font-family="sans-serif" font-size="14" lengthAdjust="spacing" textLength="65.6318" x="37.18" y="249.4357">API Layer</text></g><!--entity Registry--><g class="entity" data-entity="Registry" data-source-line="7" data-uid="ent0004" id="entity_Registry"><rect fill="#F1F1F1" height="46.2969" rx="2.5" ry="2.5" style="stroke:#181818;stroke-width:0.5;" width="158.6787" x="21.66" y="646.9306"/><rect fill="#F1F1F1" height="10" style="stroke:#181818;stroke-width:0.5;" width="15" x="160.3387" y="651.9306"/><rect fill="#F1F1F1" height="2" style="stroke:#181818;stroke-width:0.5;" width="4" x="158.3387" y="653.9306"/><rect fill="#F1F1F1" height="2" style="stroke:#181818;stroke-width:0.5;" width="4" x="158.3387" y="657.9306"/><text fill="#000000" font-family="sans-serif" font-size="14" lengthAdjust="spacing" textLength="118.6787" x="36.66" y="679.9257">Schema Registry</text></g><!--entity Validator--><g class="entity" data-entity="Validator" data-source-line="8" data-uid="ent0005" id="entity_Validator"><rect fill="#F1F1F1" height="46.2969" rx="2.5" ry="2.5" style="stroke:#181818;stroke-width:0.5;" width="162.6504" x="21.67" y="523.6406"/><rect fill="#F1F1F1" height="10" style="stroke:#181818;stroke-width:0.5;" width="15" x="164.3204" y="528.6406"/><rect fill="#F1F1F1" height="2" style="stroke:#181818;stroke-width:0.5;" width="4" x="162.3204" y="530.6406"/><rect fill="#F1F1F1" height="2" style="stroke:#181818;stroke-width:0.5;" width="4" x="162.3204" y="534.6406"/><text fill="#000000" font-family="sans-serif" font-size="14" lengthAdjust="spacing" textLength="122.6504" x="36.67" y="556.6357">Validation Engine</text></g><!--entity Adapter--><g class="entity" data-entity="Adapter" data-source-line="9" data-uid="ent0006" id="entity_Adapter"><rect fill="#F1F1F1" height="46.2969" rx="2.5" ry="2.5" style="stroke:#181818;stroke-width:0.5;" width="155.0146" x="66.49" y="344.2906"/><rect fill="#F1F1F1" height="10" style="stroke:#181818;stroke-width:0.5;" width="15" x="201.5046" y="349.2906"/><rect fill="#F1F1F1" height="2" style="stroke:#181818;stroke-width:0.5;" width="4" x="199.5046" y="351.2906"/><rect fill="#F1F1F1" height="2" style="stroke:#181818;stroke-width:0.5;" width="4" x="199.5046" y="355.2906"/><text fill="#000000" font-family="sans-serif" font-size="14" lengthAdjust="spacing" textLength="115.0146" x="81.49" y="377.2857">Storage Adapter</text></g><!--entity Nextcloud DB--><g class="entity" data-entity="Nextcloud DB" data-source-line="15" data-uid="ent0009" id="entity_Nextcloud DB"><path d="M342.2,534.1406 C342.2,524.1406 400.0037,524.1406 400.0037,524.1406 C400.0037,524.1406 457.8074,524.1406 457.8074,534.1406 L457.8074,559.4375 C457.8074,569.4375 400.0037,569.4375 400.0037,569.4375 C400.0037,569.4375 342.2,569.4375 342.2,559.4375 L342.2,534.1406" fill="#F1F1F1" style="stroke:#181818;stroke-width:0.5;"/><path d="M342.2,534.1406 C342.2,544.1406 400.0037,544.1406 400.0037,544.1406 C400.0037,544.1406 457.8074,544.1406 457.8074,534.1406" fill="none" style="stroke:#181818;stroke-width:0.5;"/><text fill="#000000" font-family="sans-serif" font-size="14" lengthAdjust="spacing" textLength="95.6074" x="352.2" y="561.1357">Nextcloud DB</text></g><!--entity MySQL/MariaDB--><g class="entity" data-entity="MySQL/MariaDB" data-source-line="16" data-uid="ent0010" id="entity_MySQL/MariaDB"><path d="M492.97,534.1406 C492.97,524.1406 558.9973,524.1406 558.9973,524.1406 C558.9973,524.1406 625.0247,524.1406 625.0247,534.1406 L625.0247,559.4375 C625.0247,569.4375 558.9973,569.4375 558.9973,569.4375 C558.9973,569.4375 492.97,569.4375 492.97,559.4375 L492.97,534.1406" fill="#F1F1F1" style="stroke:#181818;stroke-width:0.5;"/><path d="M492.97,534.1406 C492.97,544.1406 558.9973,544.1406 558.9973,544.1406 C558.9973,544.1406 625.0247,544.1406 625.0247,534.1406" fill="none" style="stroke:#181818;stroke-width:0.5;"/><text fill="#000000" font-family="sans-serif" font-size="14" lengthAdjust="spacing" textLength="112.0547" x="502.97" y="561.1357">MySQL/MariaDB</text></g><!--entity PostgreSQL--><g class="entity" data-entity="PostgreSQL" data-source-line="17" data-uid="ent0011" id="entity_PostgreSQL"><path d="M349.62,657.4306 C349.62,647.4306 399.9965,647.4306 399.9965,647.4306 C399.9965,647.4306 450.3729,647.4306 450.3729,657.4306 L450.3729,682.7275 C450.3729,692.7275 399.9965,692.7275 399.9965,692.7275 C399.9965,692.7275 349.62,692.7275 349.62,682.7275 L349.62,657.4306" fill="#F1F1F1" style="stroke:#181818;stroke-width:0.5;"/><path d="M349.62,657.4306 C349.62,667.4306 399.9965,667.4306 399.9965,667.4306 C399.9965,667.4306 450.3729,667.4306 450.3729,657.4306" fill="none" style="stroke:#181818;stroke-width:0.5;"/><text fill="#000000" font-family="sans-serif" font-size="14" lengthAdjust="spacing" textLength="80.7529" x="359.62" y="684.4257">PostgreSQL</text></g><!--entity MongoDB--><g class="entity" data-entity="MongoDB" data-source-line="18" data-uid="ent0012" id="entity_MongoDB"><path d="M485.32,657.4306 C485.32,647.4306 528.9972,647.4306 528.9972,647.4306 C528.9972,647.4306 572.6745,647.4306 572.6745,657.4306 L572.6745,682.7275 C572.6745,692.7275 528.9972,692.7275 528.9972,692.7275 C528.9972,692.7275 485.32,692.7275 485.32,682.7275 L485.32,657.4306" fill="#F1F1F1" style="stroke:#181818;stroke-width:0.5;"/><path d="M485.32,657.4306 C485.32,667.4306 528.9972,667.4306 528.9972,667.4306 C528.9972,667.4306 572.6745,667.4306 572.6745,657.4306" fill="none" style="stroke:#181818;stroke-width:0.5;"/><text fill="#000000" font-family="sans-serif" font-size="14" lengthAdjust="spacing" textLength="67.3545" x="495.32" y="684.4257">MongoDB</text></g><!--entity Client--><g class="entity" data-entity="Client" data-source-line="13" data-uid="ent0007" id="entity_Client"><ellipse cx="74.9951" cy="50.6406" fill="#F1F1F1" rx="8" ry="8" style="stroke:#181818;stroke-width:0.5;"/><path d="M74.9951,58.6406 L74.9951,85.6406 M61.9951,66.6406 L87.9951,66.6406 M74.9951,85.6406 L61.9951,100.6406 M74.9951,85.6406 L87.9951,100.6406" fill="none" style="stroke:#181818;stroke-width:0.5;"/><text fill="#000000" font-family="sans-serif" font-size="14" lengthAdjust="spacing" textLength="40.5303" x="54.73" y="115.1357">Client</text></g><g class="entity" data-entity="GMN18" data-source-line="29" data-uid="ent0019" id="entity_GMN18"><path d="M301.92,339.7406 L301.92,363.4406 L221.87,367.4406 L301.92,371.4406 L301.92,395.1391 A0,0 0 0 0 301.92,395.1391 L534.0811,395.1391 A0,0 0 0 0 534.0811,395.1391 L534.0811,349.7406 L524.0811,339.7406 L301.92,339.7406 A0,0 0 0 0 301.92,339.7406" fill="#FEFFDD" style="stroke:#181818;stroke-width:0.5;"/><path d="M524.0811,339.7406 L524.0811,349.7406 L534.0811,349.7406 L524.0811,339.7406" fill="#FEFFDD" style="stroke:#181818;stroke-width:0.5;"/><text fill="#000000" font-family="sans-serif" font-size="13" lengthAdjust="spacing" textLength="211.1611" x="307.92" y="356.8075">Validates incoming JSON objects</text><text fill="#000000" font-family="sans-serif" font-size="13" lengthAdjust="spacing" textLength="196.3901" x="307.92" y="371.9403">and stores them in configured</text><text fill="#000000" font-family="sans-serif" font-size="13" lengthAdjust="spacing" textLength="115.6733" x="307.92" y="387.0731">storage backends</text></g><!--link Client to API--><g class="link" data-entity-1="Client" data-entity-2="API" data-source-line="22" data-uid="lnk13" id="link_Client_API"><path d="M75,118.5706 C75,148.9106 75,184.7406 75,210.1606" fill="none" id="Client-to-API" style="stroke:#181818;stroke-width:1;"/><polygon fill="#181818" points="75,216.1606,79,207.1606,75,211.1606,71,207.1606,75,216.1606" style="stroke:#181818;stroke-width:1;"/><text fill="#000000" font-family="sans-serif" font-size="13" lengthAdjust="spacing" textLength="187.8779" x="76" y="161.5075">Wants to store a JSON object</text></g><!--link API to Adapter--><g class="link" data-entity-1="API" data-entity-2="Adapter" data-source-line="23" data-uid="lnk14" id="link_API_Adapter"><path d="M87.34,263.0906 C99.9,286.0006 116.3649,316.0398 128.8849,338.8698" fill="none" id="API-to-Adapter" style="stroke:#181818;stroke-width:1;"/><polygon fill="#181818" points="131.77,344.1306,130.9496,334.316,129.3658,339.7466,123.9352,338.1627,131.77,344.1306" style="stroke:#181818;stroke-width:1;"/><text fill="#000000" font-family="sans-serif" font-size="13" lengthAdjust="spacing" textLength="195.5269" x="112" y="305.8075">passes incoming JSON objects</text></g><!--link Adapter to Validator--><g class="link" data-entity-1="Adapter" data-entity-2="Validator" data-source-line="24" data-uid="lnk15" id="link_Adapter_Validator"><path d="M138.81,390.9006 C130.94,424.9206 117.44,483.3045 109.57,517.3845" fill="none" id="Adapter-to-Validator" style="stroke:#181818;stroke-width:1;"/><polygon fill="#181818" points="108.22,523.2306,114.1425,515.3614,109.345,518.3588,106.3476,513.5614,108.22,523.2306" style="stroke:#181818;stroke-width:1;"/><text fill="#000000" font-family="sans-serif" font-size="13" lengthAdjust="spacing" textLength="211.1611" x="131" y="438.2075">Validates incoming JSON objects</text></g><!--reverse link Validator to Registry--><g class="link" data-entity-1="Validator" data-entity-2="Registry" data-source-line="25" data-uid="lnk16" id="link_Validator_Registry"><path d="M102.5308,576.3198 C102.1708,598.0998 101.73,624.9306 101.37,646.6706" fill="none" id="Validator-backto-Registry" style="stroke:#181818;stroke-width:1;"/><polygon fill="#181818" points="102.63,570.3206,98.4818,579.2533,102.5474,575.3199,106.4807,579.3855,102.63,570.3206" style="stroke:#181818;stroke-width:1;"/><text fill="#000000" font-family="sans-serif" font-size="13" lengthAdjust="spacing" textLength="177.1885" x="103" y="612.9975">Obtains schema definitions</text></g><!--link Adapter to Storage--><g class="link" data-entity-1="Adapter" data-entity-2="Storage" data-source-line="26" data-uid="lnk17" id="link_Adapter_Storage"><path d="M221.72,383.4406 C241.98,387.3106 263.8,391.4206 284,395.1406 C401.64,416.7906 430.41,426.5006 549,442.1406 C559.17,443.4806 633.36,443.2906 641,450.1406 C644.9713,453.6994 648.2528,457.8305 650.9543,462.3392 C651.6297,463.4664 649.5169,459.2854 650.1215,460.4568" fill="none" id="Adapter-to-Storage" style="stroke:#181818;stroke-width:1;"/><polygon fill="#181818" points="652.8734,465.7885,652.3,455.9563,650.5801,461.3454,645.191,459.6255,652.8734,465.7885" style="stroke:#181818;stroke-width:1;"/><text fill="#000000" font-family="sans-serif" font-size="13" lengthAdjust="spacing" textLength="189.9028" x="550" y="438.2075">Saves results after validation</text></g><!--SRC=[XP9DJyCm38Rl-HNMBfmcxWWXiOy321Wm2Gw8WzkwMQ1pgZWRJ8Z_ZhEqPG8XTfZI-7djrtRarN6B0TTGOFbgWzzmDVMD3n03icY8E1ePg1LozHPSZCHGOoDap17Cg7PCKFfrwrbvCQqcGqimMhGAtfDr4YcCuCE0_fxERo_W2dSKdW45z2jVByiLhR73msuVx3yoyO2Dgp0wpp1dgqNtJ7VhGvT6JwduUOLjx6lai_bCVkVlUcHi3XrZgIgODYxrgycmG57_VQw9DaHSoIWbwozpDz_m3Rt7il6R2cQJqO_OzMvvTtLyZS7Xx-2jbsW3AV5Bvjdw9DWRdtfcAbFxOh9L68_FqW3X11vH-u3eGTGU0SBbSd43ldXHXKd87irpKBn54H9mh4DmR0zfCJsM9CDqLTIT_zHziwVZyR0x5IwAY8u59A-uIY_6vKOEQ_MJLSKIjreca6mQRGlhX6o7zHl3FX84PrSHV3ti5_wr2A1FECz8fwLkbDE7mBMpcq2LngKpKNGxD_e7gTmN]--></g></svg>