<?xml version="1.0" encoding="UTF-8"?>
<svg xmlns="http://www.w3.org/2000/svg" version="1.1" viewBox="0 0 24 24">
  <defs>
    <style>
      .cls-1 {
        fill: #fff;
      }
    </style>
  </defs>
  <!-- Generator: Adobe Illustrator 28.6.0, SVG Export Plug-In . SVG Version: 1.2.0 Build 709)  -->
  <g>
    <g id="Laag_1">
      <path class="cls-1" d="M19,12v1.5c2.2,0,4,1.8,4,4s-.2,1.6-.7,2.2l-1.1-1.1c.2-.3.3-.7.3-1.1,0-1.4-1.1-2.5-2.5-2.5v1.5l-2.2-2.2,2.2-2.2M19,23v-1.5c-2.2,0-4-1.8-4-4s.2-1.6.7-2.2l1.1,1.1c-.2.3-.3.7-.3,1.1,0,1.4,1.1,2.5,2.5,2.5v-1.5l2.2,2.2-2.2,2.2M12,3c4.4,0,8,1.8,8,4s-3.6,4-8,4-8-1.8-8-4S7.6,3,12,3M4,9c0,2.2,3.6,4,8,4s2.2-.1,3.1-.3c-1,.9-1.6,2-2,3.3h-1.2c-4.4,0-8-1.8-8-4v-3M20,9v2h-1.1c.7-.6,1.1-1.3,1.1-2M4,14c0,2.2,3.6,4,8,4h1c0,1,.4,2,.9,2.9h-1.9c-4.4.1-8-1.7-8-3.9v-3Z"/>
    </g>
  </g>
</svg>